<?xml version="1.0" standalone="no"?>
<!DOCTYPE svg PUBLIC "-//W3C//DTD SVG 20010904//EN"
 "http://www.w3.org/TR/2001/REC-SVG-20010904/DTD/svg10.dtd">
<svg version="1.0" xmlns="http://www.w3.org/2000/svg"
 width="128.000000pt" height="59.000000pt" viewBox="0 0 128.000000 59.000000"
 preserveAspectRatio="xMidYMid meet">
<metadata>
Created by potrace 1.10, written by Peter Selinger 2001-2011
</metadata>
<g transform="translate(0.000000,59.000000) scale(0.100000,-0.100000)"
fill="#000000" stroke="none">
<path d="M577 580 c-16 -5 -35 -17 -43 -27 -16 -21 -18 -77 -4 -103 12 -23 64
-39 108 -32 30 4 32 7 32 47 0 40 -2 43 -30 47 -36 5 -50 -10 -27 -27 22 -16
22 -45 0 -45 -40 0 -68 45 -54 83 11 29 41 42 78 33 20 -6 24 -3 21 11 -4 21
-39 26 -81 13z"/>
<path d="M723 566 c-23 -20 -27 -31 -26 -67 3 -76 70 -113 126 -69 65 52 30
160 -53 160 -10 0 -31 -11 -47 -24z m87 -25 c15 -29 12 -62 -7 -83 -20 -22
-31 -23 -55 -1 -35 31 -16 103 27 103 14 0 29 -8 35 -19z"/>
<path d="M890 510 c0 -44 0 -83 0 -86 0 -3 22 -7 50 -8 43 -1 50 1 50 17 0 15
-6 18 -32 15 l-33 -3 -3 73 c-2 55 -6 72 -17 72 -12 0 -15 -17 -15 -80z"/>
<path d="M1053 582 l-33 -3 0 -85 c0 -94 2 -96 82 -74 44 13 68 43 68 85 0 56
-43 85 -117 77z m61 -38 c33 -33 6 -104 -40 -104 -23 0 -24 3 -24 60 0 57 1
60 24 60 14 0 32 -7 40 -16z"/>
<path d="M474 295 c0 -160 2 -223 3 -142 2 82 2 212 0 290 -1 78 -3 12 -3
-148z"/>
<path d="M54 486 c-28 -29 -42 -50 -38 -60 8 -20 24 -21 24 -2 0 22 59 76 83
76 12 0 35 -9 50 -19 16 -10 37 -16 48 -14 38 10 68 -6 90 -50 12 -23 30 -52
42 -64 l20 -22 -27 -35 c-17 -23 -26 -46 -24 -64 2 -32 -59 -134 -77 -128 -16
4 -35 69 -28 100 3 20 -3 45 -23 83 -30 59 -59 78 -105 68 -22 -5 -34 -1 -54
19 -14 14 -28 26 -30 26 -13 0 -2 -25 24 -52 27 -29 32 -31 56 -20 37 17 88
-4 79 -31 -4 -12 3 -28 17 -43 20 -21 21 -26 9 -49 -10 -20 -11 -28 -2 -37 7
-7 12 -19 12 -28 0 -28 24 -70 41 -70 18 0 79 65 79 85 0 7 7 18 15 25 11 9
14 22 10 42 -6 23 0 37 34 77 23 27 41 52 41 55 0 3 -11 6 -25 6 -20 0 -32 13
-61 64 -32 55 -42 65 -71 71 -19 3 -40 2 -46 -4 -14 -11 -47 9 -47 28 0 6 -16
11 -36 11 -30 0 -44 -8 -80 -44z"/>
<path d="M545 355 c-34 -33 -34 -93 -2 -123 28 -27 107 -32 107 -7 0 10 -10
15 -34 15 -38 0 -58 19 -58 55 0 36 20 55 58 55 24 0 34 5 34 15 0 26 -76 19
-105 -10z"/>
<path d="M690 360 c-27 -27 -35 -65 -20 -101 15 -35 37 -49 78 -49 49 0 77 31
77 85 0 37 -5 51 -24 66 -31 25 -85 25 -111 -1z m96 -45 c8 -32 -3 -63 -26
-75 -25 -13 -60 19 -60 55 0 37 35 68 60 55 11 -6 22 -21 26 -35z"/>
<path d="M870 309 c-12 -39 -24 -78 -27 -85 -3 -9 2 -14 15 -14 13 0 22 9 26
24 8 34 59 32 64 -2 2 -14 10 -22 23 -22 24 0 24 -1 -4 90 -21 66 -27 75 -50
78 -24 3 -27 -1 -47 -69z m64 -1 c6 -25 4 -28 -18 -28 -23 0 -24 2 -15 32 5
18 9 35 9 37 0 14 18 -18 24 -41z"/>
<path d="M1032 368 c-24 -24 -13 -57 28 -83 46 -29 43 -49 -6 -43 -28 3 -34 1
-34 -14 0 -14 8 -18 36 -18 47 0 74 16 74 43 0 29 -9 41 -44 58 -44 21 -45 39
-2 39 25 0 36 4 36 15 0 19 -70 21 -88 3z"/>
<path d="M1150 365 c0 -9 9 -15 24 -15 24 0 24 -1 19 -70 -5 -66 -4 -70 16
-70 19 0 21 6 21 70 0 68 1 70 25 70 16 0 25 6 25 15 0 12 -14 15 -65 15 -51
0 -65 -3 -65 -15z"/>
<path d="M386 178 c-9 -12 -16 -32 -16 -43 1 -18 4 -16 25 10 26 31 32 55 16
55 -6 0 -17 -10 -25 -22z"/>
<path d="M526 170 c-2 -3 0 -41 3 -85 l6 -80 48 -1 c32 0 47 4 47 13 0 8 -13
13 -35 13 -31 0 -35 3 -35 26 0 23 3 25 32 22 24 -2 33 1 36 15 3 14 -4 17
-32 17 -30 0 -36 4 -36 21 0 19 4 20 36 15 30 -6 35 -5 32 10 -2 13 -15 17
-51 18 -27 0 -50 -1 -51 -4z"/>
<path d="M665 167 c-3 -7 -5 -47 -3 -88 2 -58 6 -74 18 -74 12 0 14 12 12 63
-1 34 1 62 5 61 4 0 22 -28 38 -62 17 -36 37 -63 48 -65 15 -3 17 6 17 87 0
78 -2 91 -16 91 -15 0 -16 -9 -11 -66 7 -76 4 -75 -38 4 -30 56 -60 77 -70 49z"/>
<path d="M830 157 c0 -13 6 -17 23 -15 21 3 22 0 22 -67 1 -58 4 -70 18 -73
15 -3 17 6 17 71 0 74 0 74 25 69 20 -3 25 0 25 15 0 16 -8 18 -65 18 -56 0
-65 -3 -65 -18z"/>
<path d="M967 44 c-15 -15 -7 -45 11 -42 9 2 17 12 17 22 0 20 -16 31 -28 20z"/>
</g>
</svg>
